<?xml version="1.0" standalone="no"?><!DOCTYPE svg PUBLIC "-//W3C//DTD SVG 1.1//EN" "http://www.w3.org/Graphics/SVG/1.1/DTD/svg11.dtd"><svg class="icon" height="512" viewBox="0 0 1024 1024" version="1.1" xmlns="http://www.w3.org/2000/svg"><path d="M953.6 512c0 243.2-198.4 441.6-441.6 441.6-243.2 6.4-441.6-198.4-441.6-441.6 0-185.6 115.2-352 281.6-416 51.2-19.2 102.4-25.6 160-25.6 57.6 0 108.8 12.8 160 32 166.4 64 281.6 224 281.6 409.6M339.2 416c0 76.8 38.4 140.8 96 172.8 25.6 12.8 51.2 25.6 76.8 25.6 25.6 0 51.2-6.4 76.8-19.2 57.6-32 96-96 96-172.8 0-108.8-76.8-192-172.8-192-96-6.4-172.8 83.2-172.8 185.6m172.8 512c128 0 243.2-57.6 320-153.6-6.4-76.8-83.2-134.4-185.6-166.4-32 32-83.2 57.6-134.4 57.6-57.6 0-102.4-19.2-140.8-57.6-96 25.6-172.8 83.2-185.6 153.6 70.4 102.4 192 166.4 326.4 166.4m0 0z" fill="" /></svg>